Size: 2.52 GiB
Video: XviD | 1280×720 | 3000 Kbps | 29.970 fps
Audio: English | MP3 | 320 Kbps
Runtime: 1h 49mn
Subtitle: Korean HC
Sample: Yes

Genre: Action | Adventure | Thriller
IMDB rating: 6.6/10 from 5,102 users
Directed by: Mike McCoy, Scott Waugh
Starring: Alex Veadov, Roselyn Sanchez and Nestor Serrano


General
Format : AVI
Format/Info : Audio Video Interleave
Format profile : OpenDML
File size : 2.52 GiB
Duration : 1h 49mn
Overall bit rate : 3 292 Kbps
Writing application : Lavf53.12.0

Video
ID : 0
Format : AVC
Format/Info : Advanced Video Codec
Format profile : Baseline@L3.0
Format settings, CABAC : No
Format settings, ReFrames : 1 frame
Codec ID : H264
Duration : 1h 49mn
Bit rate : 3 000 Kbps
Width : 1 280 pixels
Height : 720 pixels
Display aspect ratio : 16:9
Frame rate mode : Variable
Frame rate : 29.970 fps
Color space : YUV
Chroma subsampling : 4:2:0
Bit depth : 8 bits
Scan type : Progressive
Bits/(Pixel*Frame) : 0.109
Stream size : 2.27 GiB (90%)
Writing library : x264 core 116 r2074 2641b9e

Audio
ID : 1
Format : MPEG Audio
Format version : Version 1
Format profile : Layer 3
Mode : Joint stereo
Mode extension : MS Stereo
Codec ID : 55
Codec ID/Hint : MP3
Duration : 1h 49mn
Bit rate mode : Constant
Bit rate : 320 Kbps
Channel(s) : 2 channels
Sampling rate : 48.0 KHz
Compression mode : Lossy
Stream size : 251 MiB (10%)
Alignment : Aligned on interleaves
Interleave, duration : 24 ms (0.72 video frame)
Interleave, preload duration : 5 ms
Writing library : LAME3.98.4
